<svg width="467" height="500" viewBox="0 0 467 500" fill="none" xmlns="http://www.w3.org/2000/svg">
<path d="M286.81 198.833C276.712 194.048 265.915 190.57 254.626 188.59C253.24 191.128 251.62 194.543 250.504 197.259C238.504 195.431 226.614 195.431 214.835 197.259C213.718 194.543 212.062 191.128 210.663 188.59C199.363 190.57 188.553 194.061 178.455 198.858C158.087 230.032 152.565 260.431 155.326 290.398C168.835 300.616 181.927 306.823 194.798 310.885C197.976 306.455 200.81 301.746 203.252 296.783C198.602 294.993 194.148 292.785 189.939 290.221C191.056 289.383 192.148 288.507 193.203 287.606C218.872 299.766 246.761 299.766 272.123 287.606C273.191 288.507 274.283 289.383 275.387 290.221C271.166 292.797 266.7 295.006 262.05 296.796C264.491 301.746 267.313 306.468 270.504 310.897C283.387 306.836 296.491 300.629 310 290.398C313.24 255.658 304.467 225.539 286.81 198.833ZM206.749 271.969C199.044 271.969 192.725 264.683 192.725 255.811C192.725 246.939 198.909 239.64 206.749 239.64C214.59 239.64 220.909 246.926 220.774 255.811C220.786 264.683 214.59 271.969 206.749 271.969ZM258.577 271.969C250.872 271.969 244.553 264.683 244.553 255.811C244.553 246.939 250.737 239.64 258.577 239.64C266.418 239.64 272.737 246.926 272.602 255.811C272.602 264.683 266.418 271.969 258.577 271.969Z" fill="#5865F2"/>
<path d="M11.6634 250C11.6634 218.283 33.8889 187.509 74.2845 164.054C114.401 140.76 170.549 126 233.163 126C295.778 126 351.926 140.76 392.042 164.054C432.438 187.509 454.663 218.283 454.663 250C454.663 281.717 432.438 312.491 392.042 335.946C351.926 359.24 295.778 374 233.163 374C170.549 374 114.401 359.24 74.2845 335.946C33.8889 312.491 11.6634 281.717 11.6634 250Z" stroke="#5865F2" stroke-width="22"/>
<path d="M122.413 58.1754C149.881 42.3169 187.645 46.1779 228.156 69.4337C268.387 92.529 309.243 133.775 340.551 188C371.858 242.225 387.149 298.231 387.035 344.62C386.919 391.331 371.381 425.966 343.913 441.825C316.446 457.683 278.682 453.822 238.171 430.566C197.94 407.471 157.083 366.225 125.776 312C94.4692 257.775 79.1778 201.769 79.2923 155.38C79.4076 108.669 94.9457 74.0339 122.413 58.1754Z" stroke="#5865F2" stroke-width="22"/>
<path d="M343.913 58.1754C371.381 74.0339 386.919 108.669 387.035 155.38C387.149 201.769 371.858 257.775 340.551 312C309.243 366.225 268.387 407.471 228.156 430.566C187.645 453.822 149.881 457.683 122.413 441.825C94.9457 425.966 79.4076 391.331 79.2923 344.62C79.1778 298.231 94.4692 242.225 125.776 188C157.083 133.775 197.94 92.529 238.171 69.4337C278.682 46.1779 316.446 42.3169 343.913 58.1754Z" stroke="#5865F2" stroke-width="22"/>
</svg>
